<?xml version="1.0" standalone="no"?><!DOCTYPE svg PUBLIC "-//W3C//DTD SVG 1.1//EN" "http://www.w3.org/Graphics/SVG/1.1/DTD/svg11.dtd"><svg t="1517762087757" class="icon" style="" viewBox="0 0 1024 1024" version="1.1" xmlns="http://www.w3.org/2000/svg" p-id="1060" xmlns:xlink="http://www.w3.org/1999/xlink" width="30" height="30" fill="#666"><defs><style type="text/css"></style></defs><path d="M322 321l384 0c-3.376-40-19.458-70.9-55.842-80.712-0.892-0.238-2.24-0.848-3.134-1.082-24.008-6.848-42.024-15.306-42.024-41.562L605 156.454C605 105.382 563.952 64 512.98 64c-50.932 0-91.98 41.382-91.98 92.454l0 41.19c0 26.256-17.184 34.338-41.194 41.186-0.894 0.234-1.6 1.22-2.532 1.458C340.892 250.1 325.854 281 322 321zM513.98 128.79c15.23 0 27.582 12.39 27.582 27.664 0 15.308-12.352 27.7-27.582 27.7-15.228 0-27.544-12.39-27.544-27.7C486.436 141.18 498.752 128.79 513.98 128.79z" p-id="1061"></path><path d="M811.222 127 663 127l0 27.976c0 21.166 18.386 38.024 39.014 38.024l74.424 0c13.334 0 24.198 10.87 24.88 24.39l0.17 654.2c-0.644 12.864-10.606 23.092-23.028 24.034l-528.836 0.062c-12.422-0.942-22.298-11.39-22.944-24.252l-0.17-654.028c0.644-13.522 11.716-24.406 25.012-24.406l74.462 0c20.626 0 37.014-16.858 37.014-38.024L362.998 127l-146.262 0C186.5 127 161 152.116 161 183.15l0 720.76c0 31.004 25.5 57.09 55.738 57.09L513.98 961l297.242 0c30.276 0 53.778-26.086 53.778-57.09L865 183.15C865 152.116 841.498 127 811.222 127z" p-id="1062"></path><path d="M289 385l224 0 0 64-224 0 0-64Z" p-id="1063"></path><path d="M289 769l320 0 0 64-320 0 0-64Z" p-id="1064"></path><path d="M289 641l258 0 0 64-258 0 0-64Z" p-id="1065"></path><path d="M289 513l416 0 0 64-416 0 0-64Z" p-id="1066"></path></svg>
